HIERARCHY
ROOT Hips
{
 OFFSET 0.000000 0.000000 0.000000
 CHANNELS 6 Xposition Yposition Zposition Yrotation Xrotation Zrotation
 JOINT Chest
 {
  OFFSET 0.000000 10.383400 0.001500
  CHANNELS 3 Yrotation Xrotation Zrotation
  JOINT Chest2
  {
   OFFSET 0.000000 10.418200 -0.003100
   CHANNELS 3 Yrotation Xrotation Zrotation
   JOINT Chest3
   {
    OFFSET 0.000000 10.375100 0.000000
    CHANNELS 3 Yrotation Xrotation Zrotation
    JOINT Chest4
    {
     OFFSET 0.000000 10.364600 0.000000
     CHANNELS 3 Yrotation Xrotation Zrotation
     JOINT Neck
     {
      OFFSET 0.000000 15.642200 0.000000
      CHANNELS 3 Yrotation Xrotation Zrotation
      JOINT Head
      {
       OFFSET 0.000000 9.697300 -0.006500
       CHANNELS 3 Yrotation Xrotation Zrotation
       End Site
       {
        OFFSET 0.000000 18.492200 -0.003400
       }
      }
     }
     JOINT RightCollar
     {
      OFFSET -3.166800 10.349300 0.000000
      CHANNELS 3 Yrotation Xrotation Zrotation
      JOINT RightShoulder
      {
       OFFSET -14.729700 0.000000 0.000000
       CHANNELS 3 Yrotation Xrotation Zrotation
       JOINT RightElbow
       {
        OFFSET 0.000000 -32.224300 0.000000
        CHANNELS 3 Yrotation Xrotation Zrotation
        JOINT RightWrist
        {
         OFFSET 0.000000 -26.084100 0.000000
         CHANNELS 3 Yrotation Xrotation Zrotation
         End Site
         {
          OFFSET 0.000000 -19.319400 0.000000
         }
        }
       }
      }
     }
     JOINT LeftCollar
     {
      OFFSET 3.166800 10.349300 0.000000
      CHANNELS 3 Yrotation Xrotation Zrotation
      JOINT LeftShoulder
      {
       OFFSET 14.729700 0.000000 0.000000
       CHANNELS 3 Yrotation Xrotation Zrotation
       JOINT LeftElbow
       {
        OFFSET 0.000000 -32.224300 0.000000
        CHANNELS 3 Yrotation Xrotation Zrotation
        JOINT LeftWrist
        {
         OFFSET 0.000000 -26.084100 0.000000
         CHANNELS 3 Yrotation Xrotation Zrotation
         End Site
         {
          OFFSET 0.000000 -19.319400 0.000000
         }
        }
       }
      }
     }
    }
   }
  }
 }
 JOINT RightHip
 {
  OFFSET -8.428900 -0.007500 -0.000800
  CHANNELS 3 Yrotation Xrotation Zrotation
  JOINT RightKnee
  {
   OFFSET 0.000000 -43.834600 0.000700
   CHANNELS 3 Yrotation Xrotation Zrotation
   JOINT RightAnkle
   {
    OFFSET 0.000000 -42.757000 0.001200
    CHANNELS 3 Yrotation Xrotation Zrotation
    JOINT RightToe
    {
     OFFSET 0.000000 -6.946900 15.649300
     CHANNELS 3 Yrotation Xrotation Zrotation
     End Site
     {
      OFFSET 0.000000 -1.580800 6.825800
     }
    }
   }
  }
 }
 JOINT LeftHip
 {
  OFFSET 8.428900 -0.007500 -0.000800
  CHANNELS 3 Yrotation Xrotation Zrotation
  JOINT LeftKnee
  {
   OFFSET 0.000000 -43.834600 0.000700
   CHANNELS 3 Yrotation Xrotation Zrotation
   JOINT LeftAnkle
   {
    OFFSET 0.000000 -42.757000 0.001200
    CHANNELS 3 Yrotation Xrotation Zrotation
    JOINT LeftToe
    {
     OFFSET 0.000000 -6.946900 15.649300
     CHANNELS 3 Yrotation Xrotation Zrotation
     End Site
     {
      OFFSET 0.000000 -1.580800 6.825800
     }
    }
   }
  }
 }
}
MOTION
Frames: 8
Frame Time: 0.008333
129.539923 126.980978 6.215685 -15.503729 -29.122184 -1.655031 -1.461821 19.758531 1.785493 -0.176390 2.466960 0.253191 -0.336225 4.007691 0.401338 -1.262621 17.044777 1.578648 3.769090 9.584113 -2.449602 8.464109 -17.694620 -6.506762 -6.921375 -0.779035 -6.146718 -10.205208 -6.381765 1.829870 -29.352663 -27.899035 10.349650 -5.035072 -5.012674 5.216219 1.437163 -1.913316 -1.615834 14.029970 0.044961 -0.226462 29.675499 -36.968457 -21.213728 10.781593 -17.226450 7.111170 -4.192463 -40.710540 0.107638 -23.626257 70.344656 -22.891861 -1.825750 1.583632 4.147816 0.001247 -0.012132 0.000553 -5.078652 -33.775520 -5.093185 -1.052671 64.516073 0.922567 -13.435500 0.071279 -4.666186 0.001278 0.000017 0.000567
129.540360 126.980892 6.217442 -15.495625 -29.109564 -1.655340 -1.436689 19.773267 1.799101 -0.173110 2.465750 0.256252 -0.331493 4.011445 0.404048 -1.239979 17.051999 1.592062 3.738300 9.502956 -2.457038 8.416474 -17.847098 -6.516170 -7.270570 -0.611277 -6.336284 -10.545959 -5.716344 1.930441 -32.010148 -29.806129 14.400812 -5.744153 -5.825607 5.167848 1.579023 -1.729498 -1.451291 14.370777 0.363501 -0.212551 30.405373 -38.676161 -23.530362 10.845642 -18.190378 7.218944 -4.196541 -40.725770 0.104625 -23.659080 70.348143 -22.928239 -1.818386 1.586211 4.154818 -0.000619 -0.011159 -0.000275 -5.075019 -33.789591 -5.104422 -1.052051 64.518868 0.928236 -13.440545 0.072132 -4.669948 0.000948 -0.000109 0.000421
129.540832 126.980725 6.218710 -15.492994 -29.092532 -1.653576 -1.405135 19.779900 1.816261 -0.175366 2.461348 0.257716 -0.326982 4.012764 0.406474 -1.218690 17.054703 1.604618 3.709700 9.432985 -2.464860 8.372163 -17.978646 -6.526099 -7.601846 -0.459408 -6.529788 -10.910713 -5.069508 1.971976 -34.576587 -31.431046 18.574225 -6.470842 -6.652236 5.091427 1.699954 -1.554651 -1.281284 14.722868 0.675129 -0.176954 31.022653 -40.430695 -25.741515 10.828420 -19.029973 7.210410 -4.201553 -40.746821 0.105037 -23.661226 70.351832 -22.934894 -1.819601 1.591306 4.156190 0.000037 -0.013535 0.000017 -5.065913 -33.805438 -5.121358 -1.050741 64.519083 0.937601 -13.422570 0.067612 -4.669061 0.001122 -0.000797 0.000498
129.541076 126.980909 6.220210 -15.492234 -29.076439 -1.652304 -1.374783 19.783594 1.832584 -0.184160 2.451068 0.260667 -0.323795 4.010988 0.408433 -1.204068 17.051508 1.615055 3.681256 9.403159 -2.473737 8.352122 -18.038189 -6.531284 -7.901673 -0.328926 -6.726834 -11.300482 -4.464292 1.947160 -36.896680 -32.802956 22.686361 -7.186764 -7.462125 5.036103 1.805603 -1.391818 -1.119226 15.068940 0.976154 -0.111416 31.547518 -42.216690 -27.817934 10.778094 -19.771900 7.083695 -4.205778 -40.767653 0.109255 -23.662504 70.355002 -22.940956 -1.826751 1.606481 4.156319 0.001449 -0.013962 0.000643 -5.062063 -33.821100 -5.127576 -1.046902 64.517819 0.944906 -13.435018 0.065449 -4.668952 0.000998 -0.001242 0.000443
129.541182 126.981964 6.222980 -15.491230 -29.068311 -1.650958 -1.351638 19.787226 1.856873 -0.199804 2.439349 0.252111 -0.323635 4.010943 0.405072 -1.197326 17.040182 1.628076 3.672812 9.388590 -2.486061 8.327743 -18.174873 -6.549182 -8.164021 -0.226814 -6.927533 -11.699319 -3.925092 1.860919 -38.861178 -33.983247 26.567599 -7.833642 -8.223678 5.038097 1.906231 -1.245701 -0.973750 15.390389 1.256700 -0.009529 32.025822 -44.007638 -29.765678 10.722786 -20.420494 6.848686 -4.206964 -40.778188 0.111477 -23.676307 70.355501 -22.959092 -1.827100 1.619158 4.158080 0.002912 -0.013877 0.001292 -5.054387 -33.826361 -5.140223 -1.038841 64.513217 0.961529 -13.443309 0.065370 -4.670133 0.000558 -0.001591 0.000248
129.541191 126.983225 6.225850 -15.488977 -29.062061 -1.651800 -1.358129 19.779434 1.862298 -0.200741 2.436253 0.252821 -0.314317 4.013684 0.401819 -1.213422 17.023203 1.638753 3.685315 9.356885 -2.499397 8.308510 -18.241417 -6.560079 -8.386273 -0.159673 -7.131852 -12.079440 -3.464977 1.728165 -40.433833 -35.050609 30.098452 -8.341716 -8.895129 5.112750 2.002966 -1.122538 -0.848954 15.682904 1.503994 0.134976 32.509920 -45.766569 -31.613689 10.678891 -20.950498 6.526124 -4.209118 -40.785436 0.110820 -23.685150 70.355801 -22.969819 -1.819157 1.634575 4.160166 0.003128 -0.012519 0.001388 -5.045558 -33.829840 -5.151371 -1.028396 64.509494 0.980630 -13.450759 0.066170 -4.669250 0.000591 -0.002144 0.000262
129.541958 126.984090 6.227996 -15.487490 -29.052368 -1.650676 -1.375266 19.766487 1.860415 -0.203006 2.433121 0.253214 -0.305854 4.009037 0.405703 -1.229559 17.018733 1.637072 3.692779 9.328615 -2.502925 8.312106 -18.241340 -6.571825 -8.576417 -0.136659 -7.327370 -12.428591 -3.085211 1.561054 -41.605812 -36.089167 33.199975 -8.658799 -9.429449 5.259230 2.076875 -1.037308 -0.740292 15.950548 1.716820 0.333013 33.032568 -47.456954 -33.381458 10.668232 -21.357453 6.126092 -4.215109 -40.793686 0.108334 -23.671971 70.355372 -22.960034 -1.814481 1.640203 4.160527 0.002320 -0.013191 0.001030 -5.022814 -33.833377 -5.168397 -1.035614 64.501891 0.993989 -13.467536 0.065453 -4.668758 -0.000008 -0.000986 -0.000004
129.542659 126.984770 6.229698 -15.478866 -29.043236 -1.655362 -1.399516 19.754661 1.857660 -0.205193 2.430855 0.253299 -0.333929 3.995070 0.410194 -1.196229 17.033294 1.628147 3.677583 9.303120 -2.495470 8.335645 -18.222044 -6.585560 -8.748286 -0.160375 -7.498991 -12.747597 -2.786416 1.367177 -42.364793 -37.175962 35.810259 -8.779400 -9.799278 5.463137 2.104039 -1.006898 -0.688681 16.198855 1.891009 0.635055 33.587798 -49.057873 -35.056795 10.683943 -21.655660 5.671300 -4.229416 -40.798818 0.112648 -23.677186 70.349912 -22.970682 -1.807410 1.644282 4.162146 0.002441 -0.013694 0.001084 -5.021607 -33.837255 -5.172946 -1.039983 64.494605 0.997484 -13.476268 0.063737 -4.666434 -0.000029 0.000181 -0.000013
